<svg xmlns="http://www.w3.org/2000/svg" viewBox="0 0 1340.37 517.33"><defs><style>.cls-1,.cls-2{fill:#fff;}.cls-2{font-size:96.53px;font-family:Poppins-Bold, Poppins;font-weight:700;letter-spacing:0.03em;}</style></defs><g id="Layer_2" data-name="Layer 2"><g id="Layer_1-2" data-name="Layer 1"><path class="cls-1" d="M1325.17,335.34h-86.64q-10-29.41-20-59H1093.36q-10,29.37-20,59H987.67Q1048.39,167.52,1109,.08h94.86ZM1197.35,212.86l-40.56-120c-.16-.45-.37-.88-.56-1.32a.27.27,0,0,0-.18-.13,1.77,1.77,0,0,0-.43,0Q1135.37,152,1115,212.86Z"/><path class="cls-1" d="M408,0h94.8Q563.39,167.48,624,335l-.19.26c-.06.05-.12.13-.18.14-.64,0-1.27.14-1.9.14H537.55c-6.68-19.72-13.34-39.36-20-59.11H392.32q-10,29.37-20,58.95H286.64Q347.39,167.5,408,0Zm47.19,91.28-.53,0L414,212.84h82.36Z"/><path class="cls-1" d="M889.2,0h86c.13.12.2.16.23.22a.33.33,0,0,1,.08.22,2.77,2.77,0,0,1-.1.71Q916.32,167.84,857.18,334.52a6.75,6.75,0,0,1-.56,1h-100c-2.12,0-2.13,0-2.85-2q-29.6-83.46-59.2-166.92-22.3-62.91-44.64-125.8-6.78-19.08-13.55-38.17c-.26-.74-.46-1.49-.75-2.45h87q41.31,125.82,82.74,252l.57,0Q847.54,126.14,889.2,0Z"/><path class="cls-1" d="M161,.07h81.75V2.54q0,115,0,230c0,17.67-3.2,34.82-10.76,51-8.62,18.37-22.13,32.1-39.86,41.77-11.5,6.27-23.86,9.9-36.77,11.87a161.82,161.82,0,0,1-32.77,1.32c-18.81-1-36.87-5-53.54-14.15-26.5-14.49-43-36.6-49.94-65.92a154.81,154.81,0,0,1-3.84-34,9.47,9.47,0,0,1,.14-1.26H96.57c0,.89.09,1.81.1,2.72a56.78,56.78,0,0,0,3.5,20c4.49,11.58,12.87,18.13,25.31,19.46a37.91,37.91,0,0,0,13.56-.85c10.21-2.62,16.4-9.44,19.6-19.23A51.16,51.16,0,0,0,161,229.19q0-112.86,0-225.72Z"/><text class="cls-2" transform="translate(0 458.84)">NOT THE JAVA YOU THINK!</text></g></g></svg>