<?xml version="1.0" encoding="utf-8"?>
<!-- Svg Vector Icons : http://www.onlinewebfonts.com/icon -->
<!DOCTYPE svg PUBLIC "-//W3C//DTD SVG 1.1//EN" "http://www.w3.org/Graphics/SVG/1.1/DTD/svg11.dtd">
<svg version="1.1" xmlns="http://www.w3.org/2000/svg" xmlns:xlink="http://www.w3.org/1999/xlink" x="0px" y="0px" viewBox="0 0 1000 1000" enable-background="new 0 0 1000 1000" xml:space="preserve">
<metadata> Svg Vector Icons : http://www.onlinewebfonts.com/icon </metadata>
<g><g transform="translate(0.000000,511.000000) scale(0.100000,-0.100000)"><path d="M233.5,3787.2c-22.6-6.2-61.6-28.8-86.3-53.4l-47.3-41.1V122c0-1964.1,6.2-3585.1,12.3-3603.6c37-96.6-197.2-92.5,4887.7-92.5c5087,0,4850.7-4.1,4887.7,94.5c6.2,18.5,12.3,1637.5,12.3,3599.5v3566.6l-51.4,53.4l-51.4,51.4l-4762.3,2.1C2417.5,3795.4,256.1,3793.4,233.5,3787.2z M9561,812.3v-2629.8H5000H439l-6.2,2609.2c-2.1,1436.1,0,2621.5,6.2,2635.9c6.2,20.5,930.7,24.7,4565.1,20.5L9561,3442V812.3z M9550.7-2690.7v-534.2H5000H449.3v534.2v534.2H5000h4550.7V-2690.7z"/><path d="M4186.4,1646.4l-49.3-39l-6.2-864.9l-6.2-865l51.4-51.4c32.9-32.9,74-51.4,115.1-51.4c61.6,0,1633.3,770.4,1711.4,838.2c39,34.9,47.2,147.9,14.4,211.6c-30.8,53.4-1643.6,860.8-1723.7,860.8C4260.4,1685.4,4213.1,1666.9,4186.4,1646.4z M5480.8,728c6.2-6.2-973.8-501.3-994.4-501.3c-6.2,0-10.3,226-10.3,503.4v503.4l499.2-248.6C5248.6,847.2,5476.6,732.1,5480.8,728z"/><path d="M613.6-2690.7V-2855h3071.5h3071.5v164.4v164.4H3685.1H613.6V-2690.7z"/></g></g>
</svg>